<svg xmlns="http://www.w3.org/2000/svg" xmlns:xlink="http://www.w3.org/1999/xlink" width="500" zoomAndPan="magnify" viewBox="0 0 375 374.999991" height="500" preserveAspectRatio="xMidYMid meet" version="1.0"><defs><g/><clipPath id="817041754a"><path d="M 150.699219 73.726562 L 266.863281 73.726562 L 266.863281 211 L 150.699219 211 Z M 150.699219 73.726562 " clip-rule="nonzero"/></clipPath><clipPath id="479c990049"><path d="M 107.558594 98.203125 L 181.480469 98.203125 L 181.480469 172 L 107.558594 172 Z M 107.558594 98.203125 " clip-rule="nonzero"/></clipPath></defs><g clip-path="url(#817041754a)"><path fill="#2a3547" d="M 267.441406 210.402344 L 240.109375 210.402344 L 215.378906 174.953125 C 213.464844 172.210938 210.335938 170.574219 206.988281 170.582031 L 186.21875 170.582031 C 180.617188 170.582031 176.074219 175.121094 176.074219 180.722656 L 176.074219 210.402344 L 150.699219 210.402344 L 150.699219 175.066406 C 150.699219 161.054688 162.0625 149.691406 176.074219 149.691406 L 205.746094 149.691406 C 216.808594 149.691406 225.203125 147.316406 230.929688 142.566406 C 236.65625 137.820312 239.523438 131.082031 239.523438 122.363281 C 239.523438 113.644531 236.660156 106.941406 230.929688 102.253906 C 225.203125 97.570312 216.808594 95.226562 205.746094 95.226562 L 150.699219 95.226562 L 150.699219 73.753906 L 206.921875 73.753906 C 218.761719 73.753906 229.078125 75.707031 237.863281 79.609375 C 246.648438 83.511719 253.386719 89.109375 258.070312 96.398438 C 262.753906 103.6875 265.097656 112.34375 265.097656 122.363281 C 265.097656 132.648438 262.59375 141.492188 257.585938 148.910156 C 252.574219 156.328125 245.382812 161.863281 236.011719 165.503906 Z M 267.441406 210.402344 " fill-opacity="1" fill-rule="nonzero"/></g><path fill="#519cc4" d="M 144.4375 170.996094 C 124.636719 170.996094 108.519531 154.894531 108.503906 135.097656 C 108.503906 135.089844 108.503906 135.085938 108.503906 135.078125 C 108.503906 135.074219 108.503906 135.066406 108.503906 135.0625 C 108.519531 115.265625 124.636719 99.164062 144.4375 99.164062 C 164.25 99.164062 180.371094 115.28125 180.371094 135.097656 L 180.371094 142.667969 L 144.429688 142.628906 L 144.445312 127.5 L 163.8125 127.519531 C 160.777344 119.785156 153.234375 114.292969 144.4375 114.292969 C 132.96875 114.292969 123.640625 123.617188 123.632812 135.078125 C 123.640625 146.542969 132.96875 155.867188 144.4375 155.867188 L 144.4375 170.996094 " fill-opacity="1" fill-rule="nonzero"/><g clip-path="url(#479c990049)"><path fill="#519cc4" d="M 144.4375 100.109375 C 125.164062 100.109375 109.464844 115.789062 109.449219 135.066406 C 109.464844 154.050781 124.652344 169.535156 143.492188 170.039062 L 143.492188 156.792969 C 131.945312 156.296875 122.695312 146.75 122.6875 135.078125 C 122.695312 123.097656 132.453125 113.347656 144.4375 113.347656 C 153.308594 113.347656 161.449219 118.90625 164.695312 127.175781 L 165.199219 128.46875 L 145.390625 128.449219 L 145.375 141.683594 L 179.425781 141.722656 L 179.425781 135.097656 C 179.425781 115.800781 163.730469 100.109375 144.4375 100.109375 Z M 145.382812 171.941406 L 144.4375 171.941406 C 124.121094 171.941406 107.578125 155.410156 107.558594 135.097656 C 107.578125 114.746094 124.121094 98.21875 144.4375 98.21875 C 164.773438 98.21875 181.316406 114.761719 181.316406 135.097656 L 181.316406 143.617188 L 143.484375 143.574219 L 143.5 126.554688 L 162.371094 126.574219 C 159.101562 119.742188 152.066406 115.238281 144.4375 115.238281 C 133.496094 115.238281 124.589844 124.136719 124.582031 135.078125 C 124.589844 146.023438 133.496094 154.921875 144.4375 154.921875 L 145.382812 154.921875 L 145.382812 171.941406 " fill-opacity="1" fill-rule="nonzero"/></g><g fill="#519cc4" fill-opacity="1"><g transform="translate(0.0552633, 283.271668)"><g><path d="M 20.703125 0.8125 C 17.316406 0.8125 14.316406 0.09375 11.703125 -1.34375 C 9.085938 -2.789062 7.035156 -4.820312 5.546875 -7.4375 C 4.054688 -10.050781 3.3125 -13.078125 3.3125 -16.515625 C 3.3125 -19.984375 4.046875 -23.070312 5.515625 -25.78125 C 6.984375 -28.488281 9.015625 -30.597656 11.609375 -32.109375 C 14.203125 -33.617188 17.253906 -34.375 20.765625 -34.375 C 24.054688 -34.375 26.960938 -33.648438 29.484375 -32.203125 C 32.015625 -30.765625 33.988281 -28.789062 35.40625 -26.28125 C 36.832031 -23.78125 37.546875 -20.992188 37.546875 -17.921875 C 37.546875 -17.429688 37.535156 -16.914062 37.515625 -16.375 C 37.492188 -15.832031 37.457031 -15.269531 37.40625 -14.6875 L 11.90625 -14.6875 C 12.082031 -12.0625 12.992188 -10.003906 14.640625 -8.515625 C 16.285156 -7.035156 18.285156 -6.296875 20.640625 -6.296875 C 22.398438 -6.296875 23.875 -6.6875 25.0625 -7.46875 C 26.257812 -8.257812 27.148438 -9.285156 27.734375 -10.546875 L 36.53125 -10.546875 C 35.90625 -8.429688 34.859375 -6.503906 33.390625 -4.765625 C 31.921875 -3.035156 30.113281 -1.671875 27.96875 -0.671875 C 25.832031 0.316406 23.410156 0.8125 20.703125 0.8125 Z M 20.765625 -27.328125 C 18.648438 -27.328125 16.78125 -26.726562 15.15625 -25.53125 C 13.53125 -24.34375 12.492188 -22.53125 12.046875 -20.09375 L 28.75 -20.09375 C 28.613281 -22.300781 27.800781 -24.054688 26.3125 -25.359375 C 24.820312 -26.671875 22.972656 -27.328125 20.765625 -27.328125 Z M 20.765625 -27.328125 "/></g></g></g><g fill="#2a3547" fill-opacity="1"><g transform="translate(40.504701, 283.271668)"><g><path d="M 4.59375 0 L 4.59375 -47.359375 L 21.984375 -47.359375 C 25.773438 -47.359375 28.898438 -46.710938 31.359375 -45.421875 C 33.816406 -44.140625 35.65625 -42.40625 36.875 -40.21875 C 38.09375 -38.03125 38.703125 -35.609375 38.703125 -32.953125 C 38.703125 -30.066406 37.945312 -27.425781 36.4375 -25.03125 C 34.925781 -22.644531 32.566406 -20.910156 29.359375 -19.828125 L 39.171875 0 L 29.234375 0 L 20.4375 -18.671875 L 13.265625 -18.671875 L 13.265625 0 Z M 13.265625 -25.03125 L 21.453125 -25.03125 C 24.335938 -25.03125 26.457031 -25.726562 27.8125 -27.125 C 29.164062 -28.53125 29.84375 -30.378906 29.84375 -32.671875 C 29.84375 -34.929688 29.175781 -36.738281 27.84375 -38.09375 C 26.507812 -39.445312 24.351562 -40.125 21.375 -40.125 L 13.265625 -40.125 Z M 13.265625 -25.03125 "/></g></g></g><g fill="#2a3547" fill-opacity="1"><g transform="translate(82.642365, 283.271668)"><g><path d="M 20.703125 0.8125 C 17.316406 0.8125 14.316406 0.09375 11.703125 -1.34375 C 9.085938 -2.789062 7.035156 -4.820312 5.546875 -7.4375 C 4.054688 -10.050781 3.3125 -13.078125 3.3125 -16.515625 C 3.3125 -19.984375 4.046875 -23.070312 5.515625 -25.78125 C 6.984375 -28.488281 9.015625 -30.597656 11.609375 -32.109375 C 14.203125 -33.617188 17.253906 -34.375 20.765625 -34.375 C 24.054688 -34.375 26.960938 -33.648438 29.484375 -32.203125 C 32.015625 -30.765625 33.988281 -28.789062 35.40625 -26.28125 C 36.832031 -23.78125 37.546875 -20.992188 37.546875 -17.921875 C 37.546875 -17.429688 37.535156 -16.914062 37.515625 -16.375 C 37.492188 -15.832031 37.457031 -15.269531 37.40625 -14.6875 L 11.90625 -14.6875 C 12.082031 -12.0625 12.992188 -10.003906 14.640625 -8.515625 C 16.285156 -7.035156 18.285156 -6.296875 20.640625 -6.296875 C 22.398438 -6.296875 23.875 -6.6875 25.0625 -7.46875 C 26.257812 -8.257812 27.148438 -9.285156 27.734375 -10.546875 L 36.53125 -10.546875 C 35.90625 -8.429688 34.859375 -6.503906 33.390625 -4.765625 C 31.921875 -3.035156 30.113281 -1.671875 27.96875 -0.671875 C 25.832031 0.316406 23.410156 0.8125 20.703125 0.8125 Z M 20.765625 -27.328125 C 18.648438 -27.328125 16.78125 -26.726562 15.15625 -25.53125 C 13.53125 -24.34375 12.492188 -22.53125 12.046875 -20.09375 L 28.75 -20.09375 C 28.613281 -22.300781 27.800781 -24.054688 26.3125 -25.359375 C 24.820312 -26.671875 22.972656 -27.328125 20.765625 -27.328125 Z M 20.765625 -27.328125 "/></g></g></g><g fill="#2a3547" fill-opacity="1"><g transform="translate(123.089131, 283.271668)"><g><path d="M 18.609375 -10.015625 C 16.984375 -10.015625 15.472656 -10.191406 14.078125 -10.546875 L 11.5625 -8.046875 C 12.332031 -7.640625 13.367188 -7.300781 14.671875 -7.03125 C 15.984375 -6.757812 18.109375 -6.488281 21.046875 -6.21875 C 25.503906 -5.8125 28.75 -4.75 30.78125 -3.03125 C 32.8125 -1.320312 33.828125 1.039062 33.828125 4.0625 C 33.828125 6.039062 33.285156 7.921875 32.203125 9.703125 C 31.117188 11.484375 29.445312 12.925781 27.1875 14.03125 C 24.9375 15.144531 22.050781 15.703125 18.53125 15.703125 C 13.75 15.703125 9.894531 14.804688 6.96875 13.015625 C 4.039062 11.234375 2.578125 8.5625 2.578125 5 C 2.578125 1.976562 4.039062 -0.632812 6.96875 -2.84375 C 6.0625 -3.25 5.28125 -3.675781 4.625 -4.125 C 3.976562 -4.570312 3.40625 -5.046875 2.90625 -5.546875 L 2.90625 -7.109375 L 8.796875 -13.328125 C 6.179688 -15.628906 4.875 -18.582031 4.875 -22.1875 C 4.875 -24.445312 5.425781 -26.5 6.53125 -28.34375 C 7.632812 -30.195312 9.203125 -31.664062 11.234375 -32.75 C 13.265625 -33.832031 15.722656 -34.375 18.609375 -34.375 C 20.503906 -34.375 22.257812 -34.101562 23.875 -33.5625 L 36.609375 -33.5625 L 36.609375 -28.28125 L 30.84375 -27.875 C 31.75 -26.15625 32.203125 -24.257812 32.203125 -22.1875 C 32.203125 -19.9375 31.660156 -17.882812 30.578125 -16.03125 C 29.492188 -14.1875 27.925781 -12.722656 25.875 -11.640625 C 23.820312 -10.554688 21.398438 -10.015625 18.609375 -10.015625 Z M 18.609375 -16.640625 C 20.367188 -16.640625 21.820312 -17.113281 22.96875 -18.0625 C 24.113281 -19.007812 24.6875 -20.363281 24.6875 -22.125 C 24.6875 -23.882812 24.113281 -25.238281 22.96875 -26.1875 C 21.820312 -27.132812 20.367188 -27.609375 18.609375 -27.609375 C 16.753906 -27.609375 15.265625 -27.132812 14.140625 -26.1875 C 13.015625 -25.238281 12.453125 -23.882812 12.453125 -22.125 C 12.453125 -20.363281 13.015625 -19.007812 14.140625 -18.0625 C 15.265625 -17.113281 16.753906 -16.640625 18.609375 -16.640625 Z M 10.484375 4.125 C 10.484375 5.789062 11.257812 7.039062 12.8125 7.875 C 14.375 8.71875 16.28125 9.140625 18.53125 9.140625 C 20.695312 9.140625 22.457031 8.695312 23.8125 7.8125 C 25.164062 6.9375 25.84375 5.753906 25.84375 4.265625 C 25.84375 3.046875 25.398438 2.03125 24.515625 1.21875 C 23.640625 0.40625 21.894531 -0.0859375 19.28125 -0.265625 C 17.4375 -0.398438 15.722656 -0.601562 14.140625 -0.875 C 12.828125 -0.15625 11.890625 0.628906 11.328125 1.484375 C 10.765625 2.347656 10.484375 3.226562 10.484375 4.125 Z M 10.484375 4.125 "/></g></g></g><g fill="#2a3547" fill-opacity="1"><g transform="translate(161.574425, 283.271668)"><g><path d="M 9.0625 -38.765625 C 7.488281 -38.765625 6.191406 -39.238281 5.171875 -40.1875 C 4.160156 -41.132812 3.65625 -42.332031 3.65625 -43.78125 C 3.65625 -45.21875 4.160156 -46.398438 5.171875 -47.328125 C 6.191406 -48.253906 7.488281 -48.71875 9.0625 -48.71875 C 10.644531 -48.71875 11.941406 -48.253906 12.953125 -47.328125 C 13.972656 -46.398438 14.484375 -45.21875 14.484375 -43.78125 C 14.484375 -42.332031 13.972656 -41.132812 12.953125 -40.1875 C 11.941406 -39.238281 10.644531 -38.765625 9.0625 -38.765625 Z M 4.734375 0 L 4.734375 -33.5625 L 13.390625 -33.5625 L 13.390625 0 Z M 4.734375 0 "/></g></g></g><g fill="#2a3547" fill-opacity="1"><g transform="translate(179.63342, 283.271668)"><g><path d="M 18.265625 0.8125 C 15.285156 0.8125 12.664062 0.328125 10.40625 -0.640625 C 8.15625 -1.609375 6.351562 -2.945312 5 -4.65625 C 3.65625 -6.375 2.847656 -8.363281 2.578125 -10.625 L 11.296875 -10.625 C 11.566406 -9.3125 12.300781 -8.191406 13.5 -7.265625 C 14.695312 -6.347656 16.238281 -5.890625 18.125 -5.890625 C 20.019531 -5.890625 21.40625 -6.269531 22.28125 -7.03125 C 23.164062 -7.800781 23.609375 -8.679688 23.609375 -9.671875 C 23.609375 -11.117188 22.976562 -12.097656 21.71875 -12.609375 C 20.457031 -13.128906 18.695312 -13.640625 16.4375 -14.140625 C 15 -14.453125 13.535156 -14.832031 12.046875 -15.28125 C 10.554688 -15.738281 9.191406 -16.316406 7.953125 -17.015625 C 6.710938 -17.710938 5.707031 -18.613281 4.9375 -19.71875 C 4.164062 -20.820312 3.78125 -22.1875 3.78125 -23.8125 C 3.78125 -26.789062 4.960938 -29.296875 7.328125 -31.328125 C 9.703125 -33.359375 13.03125 -34.375 17.3125 -34.375 C 21.289062 -34.375 24.460938 -33.445312 26.828125 -31.59375 C 29.191406 -29.75 30.597656 -27.203125 31.046875 -23.953125 L 22.875 -23.953125 C 22.375 -26.429688 20.5 -27.671875 17.25 -27.671875 C 15.625 -27.671875 14.367188 -27.351562 13.484375 -26.71875 C 12.609375 -26.09375 12.171875 -25.304688 12.171875 -24.359375 C 12.171875 -23.367188 12.828125 -22.578125 14.140625 -21.984375 C 15.453125 -21.398438 17.1875 -20.859375 19.34375 -20.359375 C 21.695312 -19.816406 23.851562 -19.21875 25.8125 -18.5625 C 27.769531 -17.914062 29.332031 -16.945312 30.5 -15.65625 C 31.675781 -14.375 32.265625 -12.539062 32.265625 -10.15625 C 32.316406 -8.070312 31.773438 -6.195312 30.640625 -4.53125 C 29.515625 -2.863281 27.890625 -1.554688 25.765625 -0.609375 C 23.648438 0.335938 21.148438 0.8125 18.265625 0.8125 Z M 18.265625 0.8125 "/></g></g></g><g fill="#2a3547" fill-opacity="1"><g transform="translate(215.142701, 283.271668)"><g><path d="M 19.34375 0 C 15.832031 0 13.015625 -0.851562 10.890625 -2.5625 C 8.773438 -4.28125 7.71875 -7.328125 7.71875 -11.703125 L 7.71875 -26.3125 L 1.96875 -26.3125 L 1.96875 -33.5625 L 7.71875 -33.5625 L 8.734375 -42.5625 L 16.375 -42.5625 L 16.375 -33.5625 L 25.4375 -33.5625 L 25.4375 -26.3125 L 16.375 -26.3125 L 16.375 -11.640625 C 16.375 -10.015625 16.722656 -8.894531 17.421875 -8.28125 C 18.117188 -7.675781 19.328125 -7.375 21.046875 -7.375 L 25.234375 -7.375 L 25.234375 0 Z M 19.34375 0 "/></g></g></g><g fill="#2a3547" fill-opacity="1"><g transform="translate(243.617763, 283.271668)"><g><path d="M 4.390625 0 L 4.390625 -33.5625 L 12.109375 -33.5625 L 12.921875 -27.265625 C 14.140625 -29.429688 15.796875 -31.15625 17.890625 -32.4375 C 19.992188 -33.726562 22.460938 -34.375 25.296875 -34.375 L 25.296875 -25.234375 L 22.875 -25.234375 C 20.976562 -25.234375 19.285156 -24.941406 17.796875 -24.359375 C 16.304688 -23.773438 15.144531 -22.757812 14.3125 -21.3125 C 13.476562 -19.863281 13.0625 -17.859375 13.0625 -15.296875 L 13.0625 0 Z M 4.390625 0 "/></g></g></g><g fill="#2a3547" fill-opacity="1"><g transform="translate(270.4019, 283.271668)"><g><path d="M 16.984375 0.8125 C 12.785156 0.8125 9.546875 -0.492188 7.265625 -3.109375 C 4.992188 -5.722656 3.859375 -9.554688 3.859375 -14.609375 L 3.859375 -33.5625 L 12.453125 -33.5625 L 12.453125 -15.421875 C 12.453125 -12.535156 13.035156 -10.328125 14.203125 -8.796875 C 15.378906 -7.265625 17.226562 -6.5 19.75 -6.5 C 22.144531 -6.5 24.117188 -7.351562 25.671875 -9.0625 C 27.234375 -10.78125 28.015625 -13.171875 28.015625 -16.234375 L 28.015625 -33.5625 L 36.671875 -33.5625 L 36.671875 0 L 29.03125 0 L 28.34375 -5.6875 C 27.3125 -3.695312 25.8125 -2.113281 23.84375 -0.9375 C 21.882812 0.226562 19.597656 0.8125 16.984375 0.8125 Z M 16.984375 0.8125 "/></g></g></g><g fill="#2a3547" fill-opacity="1"><g transform="translate(311.52502, 283.271668)"><g><path d="M 4.390625 0 L 4.390625 -33.5625 L 12.046875 -33.5625 L 12.78125 -29.03125 C 13.863281 -30.644531 15.296875 -31.9375 17.078125 -32.90625 C 18.859375 -33.882812 20.925781 -34.375 23.28125 -34.375 C 28.457031 -34.375 32.128906 -32.363281 34.296875 -28.34375 C 35.515625 -30.195312 37.148438 -31.664062 39.203125 -32.75 C 41.253906 -33.832031 43.5 -34.375 45.9375 -34.375 C 50.3125 -34.375 53.671875 -33.0625 56.015625 -30.4375 C 58.359375 -27.820312 59.53125 -23.988281 59.53125 -18.9375 L 59.53125 0 L 50.875 0 L 50.875 -18.125 C 50.875 -21.019531 50.320312 -23.234375 49.21875 -24.765625 C 48.113281 -26.296875 46.410156 -27.0625 44.109375 -27.0625 C 41.765625 -27.0625 39.878906 -26.203125 38.453125 -24.484375 C 37.035156 -22.773438 36.328125 -20.382812 36.328125 -17.3125 L 36.328125 0 L 27.671875 0 L 27.671875 -18.125 C 27.671875 -21.019531 27.101562 -23.234375 25.96875 -24.765625 C 24.84375 -26.296875 23.109375 -27.0625 20.765625 -27.0625 C 18.460938 -27.0625 16.601562 -26.203125 15.1875 -24.484375 C 13.769531 -22.773438 13.0625 -20.382812 13.0625 -17.3125 L 13.0625 0 Z M 4.390625 0 "/></g></g></g></svg>