<svg xmlns="http://www.w3.org/2000/svg" xmlns:xlink="http://www.w3.org/1999/xlink" width="500" zoomAndPan="magnify" viewBox="0 0 375 97.5" height="130" preserveAspectRatio="xMidYMid meet" version="1.0"><defs><g/><clipPath id="ea5d82f153"><path d="M 36.753906 3.945312 L 106.9375 3.945312 L 106.9375 86.164062 L 36.753906 86.164062 Z M 36.753906 3.945312 " clip-rule="nonzero"/></clipPath><clipPath id="af94c5e23b"><path d="M 10.65625 18.75 L 55.777344 18.75 L 55.777344 63.871094 L 10.65625 63.871094 Z M 10.65625 18.75 " clip-rule="nonzero"/></clipPath></defs><g fill="#ffffff" fill-opacity="1"><g transform="translate(102.839023, 77.26318)"><g><path d="M 18.515625 0.71875 C 15.492188 0.71875 12.8125 0.078125 10.46875 -1.203125 C 8.132812 -2.492188 6.300781 -4.3125 4.96875 -6.65625 C 3.632812 -9 2.96875 -11.703125 2.96875 -14.765625 C 2.96875 -17.878906 3.625 -20.644531 4.9375 -23.0625 C 6.25 -25.476562 8.0625 -27.363281 10.375 -28.71875 C 12.695312 -30.070312 15.429688 -30.75 18.578125 -30.75 C 21.523438 -30.75 24.128906 -30.101562 26.390625 -28.8125 C 28.648438 -27.519531 30.414062 -25.753906 31.6875 -23.515625 C 32.957031 -21.273438 33.59375 -18.785156 33.59375 -16.046875 C 33.59375 -15.597656 33.582031 -15.128906 33.5625 -14.640625 C 33.539062 -14.160156 33.507812 -13.660156 33.46875 -13.140625 L 10.65625 -13.140625 C 10.8125 -10.796875 11.625 -8.957031 13.09375 -7.625 C 14.570312 -6.289062 16.363281 -5.625 18.46875 -5.625 C 20.039062 -5.625 21.359375 -5.976562 22.421875 -6.6875 C 23.492188 -7.394531 24.289062 -8.3125 24.8125 -9.4375 L 32.6875 -9.4375 C 32.125 -7.539062 31.1875 -5.816406 29.875 -4.265625 C 28.5625 -2.710938 26.945312 -1.492188 25.03125 -0.609375 C 23.113281 0.273438 20.941406 0.71875 18.515625 0.71875 Z M 18.578125 -24.453125 C 16.679688 -24.453125 15.003906 -23.914062 13.546875 -22.84375 C 12.097656 -21.78125 11.175781 -20.160156 10.78125 -17.984375 L 25.71875 -17.984375 C 25.601562 -19.953125 24.878906 -21.519531 23.546875 -22.6875 C 22.210938 -23.863281 20.554688 -24.453125 18.578125 -24.453125 Z M 18.578125 -24.453125 "/></g></g></g><g fill="#ffffff" fill-opacity="1"><g transform="translate(139.029486, 77.26318)"><g><path d="M 16.640625 -8.953125 C 15.191406 -8.953125 13.84375 -9.113281 12.59375 -9.4375 L 10.34375 -7.203125 C 11.03125 -6.835938 11.957031 -6.535156 13.125 -6.296875 C 14.300781 -6.054688 16.203125 -5.8125 18.828125 -5.5625 C 22.816406 -5.207031 25.71875 -4.257812 27.53125 -2.71875 C 29.351562 -1.1875 30.265625 0.925781 30.265625 3.625 C 30.265625 5.40625 29.78125 7.09375 28.8125 8.6875 C 27.84375 10.28125 26.347656 11.570312 24.328125 12.5625 C 22.316406 13.550781 19.734375 14.046875 16.578125 14.046875 C 12.304688 14.046875 8.859375 13.25 6.234375 11.65625 C 3.609375 10.0625 2.296875 7.671875 2.296875 4.484375 C 2.296875 1.773438 3.609375 -0.566406 6.234375 -2.546875 C 5.429688 -2.910156 4.734375 -3.289062 4.140625 -3.6875 C 3.554688 -4.09375 3.046875 -4.519531 2.609375 -4.96875 L 2.609375 -6.359375 L 7.875 -11.921875 C 5.53125 -13.984375 4.359375 -16.628906 4.359375 -19.859375 C 4.359375 -21.867188 4.851562 -23.703125 5.84375 -25.359375 C 6.832031 -27.015625 8.234375 -28.328125 10.046875 -29.296875 C 11.859375 -30.265625 14.054688 -30.75 16.640625 -30.75 C 18.335938 -30.75 19.914062 -30.507812 21.375 -30.03125 L 32.75 -30.03125 L 32.75 -25.296875 L 27.609375 -24.9375 C 28.410156 -23.40625 28.8125 -21.710938 28.8125 -19.859375 C 28.8125 -17.835938 28.328125 -16 27.359375 -14.34375 C 26.390625 -12.6875 24.988281 -11.375 23.15625 -10.40625 C 21.320312 -9.4375 19.148438 -8.953125 16.640625 -8.953125 Z M 16.640625 -14.890625 C 18.210938 -14.890625 19.515625 -15.3125 20.546875 -16.15625 C 21.578125 -17.007812 22.09375 -18.222656 22.09375 -19.796875 C 22.09375 -21.367188 21.578125 -22.578125 20.546875 -23.421875 C 19.515625 -24.273438 18.210938 -24.703125 16.640625 -24.703125 C 14.992188 -24.703125 13.664062 -24.273438 12.65625 -23.421875 C 11.644531 -22.578125 11.140625 -21.367188 11.140625 -19.796875 C 11.140625 -18.222656 11.644531 -17.007812 12.65625 -16.15625 C 13.664062 -15.3125 14.992188 -14.890625 16.640625 -14.890625 Z M 9.375 3.6875 C 9.375 5.1875 10.070312 6.304688 11.46875 7.046875 C 12.863281 7.796875 14.566406 8.171875 16.578125 8.171875 C 18.515625 8.171875 20.085938 7.773438 21.296875 6.984375 C 22.515625 6.203125 23.125 5.144531 23.125 3.8125 C 23.125 2.71875 22.726562 1.804688 21.9375 1.078125 C 21.15625 0.359375 19.59375 -0.078125 17.25 -0.234375 C 15.59375 -0.359375 14.0625 -0.539062 12.65625 -0.78125 C 11.476562 -0.132812 10.632812 0.566406 10.125 1.328125 C 9.625 2.097656 9.375 2.882812 9.375 3.6875 Z M 9.375 3.6875 "/></g></g></g><g fill="#ffffff" fill-opacity="1"><g transform="translate(173.464886, 77.26318)"><g><path d="M 8.109375 -34.6875 C 6.703125 -34.6875 5.539062 -35.109375 4.625 -35.953125 C 3.71875 -36.804688 3.265625 -37.875 3.265625 -39.15625 C 3.265625 -40.445312 3.71875 -41.503906 4.625 -42.328125 C 5.539062 -43.160156 6.703125 -43.578125 8.109375 -43.578125 C 9.523438 -43.578125 10.6875 -43.160156 11.59375 -42.328125 C 12.5 -41.503906 12.953125 -40.445312 12.953125 -39.15625 C 12.953125 -37.875 12.5 -36.804688 11.59375 -35.953125 C 10.6875 -35.109375 9.523438 -34.6875 8.109375 -34.6875 Z M 4.234375 0 L 4.234375 -30.03125 L 11.984375 -30.03125 L 11.984375 0 Z M 4.234375 0 "/></g></g></g><g fill="#ffffff" fill-opacity="1"><g transform="translate(189.623504, 77.26318)"><g><path d="M 16.34375 0.71875 C 13.675781 0.71875 11.332031 0.285156 9.3125 -0.578125 C 7.300781 -1.441406 5.6875 -2.640625 4.46875 -4.171875 C 3.257812 -5.710938 2.535156 -7.488281 2.296875 -9.5 L 10.109375 -9.5 C 10.347656 -8.332031 11.003906 -7.332031 12.078125 -6.5 C 13.148438 -5.675781 14.53125 -5.265625 16.21875 -5.265625 C 17.914062 -5.265625 19.15625 -5.609375 19.9375 -6.296875 C 20.726562 -6.984375 21.125 -7.769531 21.125 -8.65625 C 21.125 -9.945312 20.554688 -10.820312 19.421875 -11.28125 C 18.296875 -11.75 16.722656 -12.207031 14.703125 -12.65625 C 13.410156 -12.9375 12.097656 -13.273438 10.765625 -13.671875 C 9.441406 -14.078125 8.222656 -14.59375 7.109375 -15.21875 C 6.003906 -15.84375 5.109375 -16.648438 4.421875 -17.640625 C 3.734375 -18.628906 3.390625 -19.851562 3.390625 -21.3125 C 3.390625 -23.96875 4.445312 -26.203125 6.5625 -28.015625 C 8.6875 -29.835938 11.664062 -30.75 15.5 -30.75 C 19.050781 -30.75 21.882812 -29.921875 24 -28.265625 C 26.113281 -26.609375 27.375 -24.328125 27.78125 -21.421875 L 20.453125 -21.421875 C 20.015625 -23.640625 18.34375 -24.75 15.4375 -24.75 C 13.976562 -24.75 12.851562 -24.46875 12.0625 -23.90625 C 11.28125 -23.34375 10.890625 -22.640625 10.890625 -21.796875 C 10.890625 -20.898438 11.472656 -20.191406 12.640625 -19.671875 C 13.816406 -19.148438 15.375 -18.664062 17.3125 -18.21875 C 19.40625 -17.738281 21.328125 -17.203125 23.078125 -16.609375 C 24.835938 -16.023438 26.242188 -15.15625 27.296875 -14 C 28.347656 -12.851562 28.875 -11.210938 28.875 -9.078125 C 28.914062 -7.222656 28.429688 -5.546875 27.421875 -4.046875 C 26.410156 -2.554688 24.957031 -1.390625 23.0625 -0.546875 C 21.164062 0.296875 18.925781 0.71875 16.34375 0.71875 Z M 16.34375 0.71875 "/></g></g></g><g fill="#ffffff" fill-opacity="1"><g transform="translate(221.396071, 77.26318)"><g><path d="M 17.3125 0 C 14.164062 0 11.644531 -0.765625 9.75 -2.296875 C 7.851562 -3.828125 6.90625 -6.550781 6.90625 -10.46875 L 6.90625 -23.546875 L 1.75 -23.546875 L 1.75 -30.03125 L 6.90625 -30.03125 L 7.8125 -38.078125 L 14.65625 -38.078125 L 14.65625 -30.03125 L 22.765625 -30.03125 L 22.765625 -23.546875 L 14.65625 -23.546875 L 14.65625 -10.40625 C 14.65625 -8.957031 14.96875 -7.957031 15.59375 -7.40625 C 16.21875 -6.863281 17.296875 -6.59375 18.828125 -6.59375 L 22.578125 -6.59375 L 22.578125 0 Z M 17.3125 0 "/></g></g></g><g fill="#ffffff" fill-opacity="1"><g transform="translate(246.874637, 77.26318)"><g><path d="M 3.9375 0 L 3.9375 -30.03125 L 10.828125 -30.03125 L 11.5625 -24.390625 C 12.65625 -26.328125 14.140625 -27.867188 16.015625 -29.015625 C 17.890625 -30.171875 20.097656 -30.75 22.640625 -30.75 L 22.640625 -22.578125 L 20.453125 -22.578125 C 18.765625 -22.578125 17.253906 -22.3125 15.921875 -21.78125 C 14.585938 -21.257812 13.546875 -20.351562 12.796875 -19.0625 C 12.054688 -17.769531 11.6875 -15.976562 11.6875 -13.6875 L 11.6875 0 Z M 3.9375 0 "/></g></g></g><g fill="#ffffff" fill-opacity="1"><g transform="translate(270.840223, 77.26318)"><g><path d="M 15.1875 0.71875 C 11.4375 0.71875 8.539062 -0.445312 6.5 -2.78125 C 4.46875 -5.125 3.453125 -8.554688 3.453125 -13.078125 L 3.453125 -30.03125 L 11.140625 -30.03125 L 11.140625 -13.796875 C 11.140625 -11.210938 11.660156 -9.234375 12.703125 -7.859375 C 13.753906 -6.492188 15.410156 -5.8125 17.671875 -5.8125 C 19.816406 -5.8125 21.582031 -6.578125 22.96875 -8.109375 C 24.363281 -9.640625 25.0625 -11.78125 25.0625 -14.53125 L 25.0625 -30.03125 L 32.8125 -30.03125 L 32.8125 0 L 25.96875 0 L 25.359375 -5.078125 C 24.429688 -3.304688 23.085938 -1.894531 21.328125 -0.84375 C 19.578125 0.195312 17.53125 0.71875 15.1875 0.71875 Z M 15.1875 0.71875 "/></g></g></g><g fill="#ffffff" fill-opacity="1"><g transform="translate(307.635882, 77.26318)"><g><path d="M 3.9375 0 L 3.9375 -30.03125 L 10.78125 -30.03125 L 11.4375 -25.96875 C 12.40625 -27.414062 13.6875 -28.570312 15.28125 -29.4375 C 16.875 -30.3125 18.722656 -30.75 20.828125 -30.75 C 25.460938 -30.75 28.75 -28.953125 30.6875 -25.359375 C 31.78125 -27.015625 33.242188 -28.328125 35.078125 -29.296875 C 36.910156 -30.265625 38.914062 -30.75 41.09375 -30.75 C 45.007812 -30.75 48.015625 -29.578125 50.109375 -27.234375 C 52.210938 -24.898438 53.265625 -21.472656 53.265625 -16.953125 L 53.265625 0 L 45.515625 0 L 45.515625 -16.21875 C 45.515625 -18.800781 45.019531 -20.78125 44.03125 -22.15625 C 43.039062 -23.53125 41.519531 -24.21875 39.46875 -24.21875 C 37.363281 -24.21875 35.675781 -23.445312 34.40625 -21.90625 C 33.132812 -20.375 32.5 -18.238281 32.5 -15.5 L 32.5 0 L 24.75 0 L 24.75 -16.21875 C 24.75 -18.800781 24.242188 -20.78125 23.234375 -22.15625 C 22.234375 -23.53125 20.679688 -24.21875 18.578125 -24.21875 C 16.523438 -24.21875 14.863281 -23.445312 13.59375 -21.90625 C 12.320312 -20.375 11.6875 -18.238281 11.6875 -15.5 L 11.6875 0 Z M 3.9375 0 "/></g></g></g><g clip-path="url(#ea5d82f153)"><path fill="#ffffff" d="M 107.359375 86.621094 L 90.832031 86.621094 L 75.871094 65.179688 C 74.714844 63.523438 72.820312 62.53125 70.796875 62.535156 L 58.234375 62.535156 C 54.847656 62.535156 52.101562 65.28125 52.101562 68.671875 L 52.101562 86.621094 L 36.753906 86.621094 L 36.753906 65.25 C 36.753906 56.773438 43.625 49.902344 52.101562 49.902344 L 70.046875 49.902344 C 76.738281 49.902344 81.8125 48.464844 85.277344 45.59375 C 88.742188 42.71875 90.476562 38.644531 90.476562 33.371094 C 90.476562 28.097656 88.742188 24.046875 85.277344 21.210938 C 81.8125 18.378906 76.738281 16.957031 70.046875 16.957031 L 36.753906 16.957031 L 36.753906 3.96875 L 70.757812 3.96875 C 77.917969 3.96875 84.15625 5.152344 89.472656 7.511719 C 94.785156 9.875 98.859375 13.257812 101.691406 17.667969 C 104.527344 22.078125 105.945312 27.3125 105.945312 33.371094 C 105.945312 39.59375 104.429688 44.941406 101.398438 49.429688 C 98.367188 53.917969 94.019531 57.261719 88.351562 59.464844 Z M 107.359375 86.621094 " fill-opacity="1" fill-rule="nonzero"/></g><path fill="#519cc4" d="M 32.964844 62.785156 C 20.988281 62.785156 11.238281 53.046875 11.230469 41.070312 C 11.230469 41.066406 11.230469 41.0625 11.230469 41.058594 C 11.230469 41.054688 11.230469 41.050781 11.230469 41.050781 C 11.238281 29.074219 20.988281 19.332031 32.964844 19.332031 C 44.953125 19.332031 54.703125 29.082031 54.703125 41.070312 L 54.703125 45.648438 L 32.960938 45.625 L 32.972656 36.472656 L 44.6875 36.484375 C 42.851562 31.804688 38.289062 28.484375 32.964844 28.484375 C 26.027344 28.484375 20.386719 34.125 20.378906 41.058594 C 20.386719 47.996094 26.027344 53.632812 32.964844 53.632812 L 32.964844 62.785156 " fill-opacity="1" fill-rule="nonzero"/><g clip-path="url(#af94c5e23b)"><path fill="#519cc4" d="M 32.964844 19.902344 C 21.304688 19.902344 11.8125 29.390625 11.800781 41.050781 C 11.8125 52.535156 20.996094 61.902344 32.394531 62.207031 L 32.394531 54.195312 C 25.410156 53.894531 19.8125 48.117188 19.808594 41.058594 C 19.8125 33.8125 25.71875 27.914062 32.964844 27.914062 C 38.332031 27.914062 43.257812 31.273438 45.21875 36.277344 L 45.523438 37.058594 L 33.542969 37.046875 L 33.535156 45.054688 L 54.132812 45.078125 L 54.132812 41.070312 C 54.132812 29.398438 44.636719 19.902344 32.964844 19.902344 Z M 33.539062 63.359375 L 32.964844 63.359375 C 20.675781 63.359375 10.667969 53.359375 10.65625 41.070312 C 10.667969 28.761719 20.675781 18.761719 32.964844 18.761719 C 45.265625 18.761719 55.273438 28.769531 55.273438 41.070312 L 55.273438 46.222656 L 32.390625 46.199219 L 32.398438 35.902344 L 43.816406 35.914062 C 41.835938 31.78125 37.582031 29.054688 32.964844 29.054688 C 26.347656 29.054688 20.960938 34.441406 20.953125 41.058594 C 20.960938 47.679688 26.347656 53.0625 32.964844 53.0625 L 33.539062 53.0625 L 33.539062 63.359375 " fill-opacity="1" fill-rule="nonzero"/></g></svg>